PathFileType	4	(X/Y/Z)	/Users/itak/Documents/Research/Walk-IL/dataset/trc/00530_00183.trc
DataRate	CameraRate	NumFrames	NumMarkers	Units	OrigDataRate	OrigDataStartFrame	OrigNumFrames
100.000000	100.000000	4	53	mm	100.000000	57	457
Frame#	Time	RPSI			LPSI			L3			STRN			T10			C7			CLAV			RBAK			LBAK			LSHO			LUPA			LAEL			LAOL			LWTS			LFRA			LIFD			LHPS			LHTS			RSHO			RUPA			RAEL			RAOL			RWTS			RWPS			RFRA			RIFD			RHTS			RHPS			RBHD			LFHD			RFHD			LBHD			LHIP			RASI			LASI			LKNE			LTHI			LANK			LTIP			LTOE			LMT1			LMT5			LHEE			RKNE			RTHI			RANK			RTIP			RTOE			RMT1			RMT5			RHEE			LWPS			RHIP			
		X1	Y1	Z1	X2	Y2	Z2	X3	Y3	Z3	X4	Y4	Z4	X5	Y5	Z5	X6	Y6	Z6	X7	Y7	Z7	X8	Y8	Z8	X9	Y9	Z9	X10	Y10	Z10	X11	Y11	Z11	X12	Y12	Z12	X13	Y13	Z13	X14	Y14	Z14	X15	Y15	Z15	X16	Y16	Z16	X17	Y17	Z17	X18	Y18	Z18	X19	Y19	Z19	X20	Y20	Z20	X21	Y21	Z21	X22	Y22	Z22	X23	Y23	Z23	X24	Y24	Z24	X25	Y25	Z25	X26	Y26	Z26	X27	Y27	Z27	X28	Y28	Z28	X29	Y29	Z29	X30	Y30	Z30	X31	Y31	Z31	X32	Y32	Z32	X33	Y33	Z33	X34	Y34	Z34	X35	Y35	Z35	X36	Y36	Z36	X37	Y37	Z37	X38	Y38	Z38	X39	Y39	Z39	X40	Y40	Z40	X41	Y41	Z41	X42	Y42	Z42	X43	Y43	Z43	X44	Y44	Z44	X45	Y45	Z45	X46	Y46	Z46	X47	Y47	Z47	X48	Y48	Z48	X49	Y49	Z49	X50	Y50	Z50	X51	Y51	Z51	X52	Y52	Z52	X53	Y53	Z53	

58	0.5700000000000001	-1211.392456054688	973.2446899414062	-405.6922912597656	-1152.478515625	970.57958984375	-514.956298828125	-1191.837646484375	1033.094116210938	-469.2101440429688	-990.1273193359375	1204.556640625	-384.5823974609375	-1209.453125	1139.215087890625	-474.5003967285156	-1172.088012695312	1370.695922851562	-457.5466613769531	-1026.155395507812	1298.62841796875	-400.6922607421875	-1245.512451171875	1248.407592773438	-393.8314514160156	-1162.245849609375	1315.629272460938	-546.3633422851562	-1048.646484375	1363.517944335938	-581.2689208984375	-1037.913452148438	1237.003662109375	-641.6917114257812	-1017.860717773438	1026.7783203125	-660.8495483398438	-1109.081909179688	1017.317687988281	-621.9020385742188	-940.6622924804688	845.7872924804688	-585.4176635742188	-998.1250610351562	944.1371459960938	-652.6502685546875	-923.7201538085938	698.0612182617188	-576.827880859375	-973.6534423828125	753.3306884765625	-635.3692626953125	-922.5972290039062	768.0751342773438	-598.1430053710938	-1176.286743164062	1367.877319335938	-299.9644470214844	-1213.029663085938	1300.30078125	-252.4531707763672	-1213.635009765625	1031.535034179688	-208.7843017578125	-1247.792114257812	1014.116027832031	-262.9541320800781	-1100.456665039062	835.5202026367188	-197.6073150634766	-1186.899536132812	808.2589721679688	-186.8002777099609	-1209.085205078125	977.05322265625	-200.2320098876953	-1090.088745117188	675.9585571289062	-192.8697509765625	-1092.066528320312	742.8809204101562	-168.1380920410156	-1161.690673828125	735.9446411132812	-177.198486328125	-1176.033081054688	1524.809204101562	-374.6066284179688	-1003.80322265625	1597.633666992188	-447.3152465820312	-1062.308227539062	1591.785400390625	-333.8880310058594	-1116.399536132812	1527.284301757812	-521.8370971679688	-998.688720703125	894.9913940429688	-581.9609985351562	-1054.963012695312	915.316650390625	-260.7737731933594	-948.446533203125	927.3615112304688	-478.3677978515625	-1023.102294921875	471.4852905273438	-539.6605224609375	-994.3196411132812	628.452392578125	-556.227294921875	-1129.367553710938	50.51432037353516	-563.5343017578125	-1056.59326171875	322.1667785644531	-553.282958984375	-974.524169921875	39.15221786499023	-426.8463745117188	-1058.690551757812	44.17693328857422	-429.2146606445312	-1025.645751953125	45.26188278198242	-525.4597778320312	-1198.041259765625	47.55387878417969	-526.4378662109375	-1161.459838867188	483.3094787597656	-277.2621459960938	-1157.799438476562	742.4838256835938	-233.6322631835938	-1217.515014648438	50.96299362182617	-335.1829833984375	-1155.867431640625	338.6119689941406	-295.48779296875	-1014.206298828125	43.07831573486328	-303.3578491210938	-1063.946044921875	47.94295120239258	-361.9849548339844	-1117.08984375	47.21734237670898	-280.6947326660156	-1248.653442382812	40.86671829223633	-398.1918029785156	-997.415283203125	806.2811889648438	-649.9706420898438	-1176.026000976562	872.3300170898438	-250.587646484375	
59	0.58	-1211.1376953125	973.2449951171875	-405.7931823730469	-1152.196166992188	970.593505859375	-515.0888061523438	-1191.723754882812	1033.2197265625	-469.3214721679688	-989.745849609375	1204.533081054688	-384.5873718261719	-1209.16748046875	1139.245849609375	-474.5635681152344	-1171.703979492188	1370.711303710938	-457.5960083007812	-1025.810668945312	1298.62890625	-400.7102661132812	-1245.220458984375	1248.4287109375	-393.8929138183594	-1161.867797851562	1315.639282226562	-546.4308471679688	-1048.181396484375	1363.5009765625	-581.2761840820312	-1037.563598632812	1237.018676757812	-641.7156982421875	-1017.598999023438	1026.7802734375	-660.9061889648438	-1108.9296875	1017.509033203125	-622.0728759765625	-940.4386596679688	845.7334594726562	-585.4600830078125	-997.8446655273438	944.110595703125	-652.696533203125	-923.8679809570312	697.7232666015625	-576.8472900390625	-973.4832763671875	753.3289794921875	-635.436767578125	-922.34814453125	767.9558715820312	-598.221923828125	-1175.925659179688	1367.868286132812	-300.0371398925781	-1212.713989257812	1300.304931640625	-252.4769592285156	-1213.329345703125	1031.547973632812	-208.8709106445312	-1247.465087890625	1014.120666503906	-263.0887145996094	-1100.08935546875	835.5196533203125	-197.7677612304688	-1186.57470703125	808.2676391601562	-186.8416290283203	-1208.785766601562	977.0736083984375	-200.3040161132812	-1089.796264648438	675.9786376953125	-192.8724212646484	-1091.736938476562	742.9011840820312	-168.2165679931641	-1161.39208984375	735.9760131835938	-177.1946258544922	-1175.646728515625	1524.7783203125	-374.6692199707031	-1003.336486816406	1597.624755859375	-447.227294921875	-1061.914184570312	1591.70751953125	-333.8468933105469	-1115.904052734375	1527.259399414062	-521.8468627929688	-998.4461059570312	894.9526977539062	-582.0931396484375	-1054.755004882812	915.2940673828125	-260.8335876464844	-948.1757202148438	927.2703857421875	-478.4599304199219	-1022.953308105469	471.4548950195312	-539.5925903320312	-994.1953735351562	628.4535522460938	-556.22705078125	-1129.403198242188	50.56411743164062	-563.5509643554688	-1056.42138671875	322.1097412109375	-553.2005004882812	-974.5245361328125	39.15378952026367	-426.8460083007812	-1058.704467773438	44.16779708862305	-429.1932067871094	-1025.652465820312	45.27866363525391	-525.4275512695312	-1198.04931640625	47.54560470581055	-526.4404907226562	-1161.365966796875	483.3064270019531	-277.298095703125	-1157.58935546875	742.509521484375	-233.6454925537109	-1217.51416015625	50.9660530090332	-335.18603515625	-1155.79736328125	338.5962829589844	-295.5204467773438	-1014.205993652344	43.07929229736328	-303.3573608398438	-1063.946044921875	47.93484115600586	-361.9873046875	-1117.090087890625	47.21772003173828	-280.69677734375	-1248.655883789062	40.86008071899414	-398.1987915039062	-997.2661743164062	806.2881469726562	-650.0712890625	-1176.669921875	873.0418090820312	-251.2238464355469	
60	0.59	-1210.869140625	973.2401123046875	-405.911865234375	-1151.906127929688	970.6034545898438	-515.2166137695312	-1191.589965820312	1033.34375	-469.4595336914062	-989.3701782226562	1204.510131835938	-384.59228515625	-1208.866088867188	1139.2802734375	-474.6334838867188	-1171.310546875	1370.72802734375	-457.6558532714844	-1025.439819335938	1298.627685546875	-400.733642578125	-1244.896484375	1248.450073242188	-393.9916076660156	-1161.478759765625	1315.652954101562	-546.496337890625	-1047.700317382812	1363.468139648438	-581.3006591796875	-1037.198120117188	1237.022216796875	-641.7587890625	-1017.289367675781	1026.774780273438	-660.9641723632812	-1108.750122070312	1017.677307128906	-622.2384643554688	-940.219970703125	845.68359375	-585.533203125	-997.5501708984375	944.078857421875	-652.768798828125	-923.9785766601562	697.3966674804688	-576.89892578125	-973.2932739257812	753.321533203125	-635.5317993164062	-922.0595703125	767.8480834960938	-598.3345336914062	-1175.556396484375	1367.861938476562	-300.106689453125	-1212.380981445312	1300.316284179688	-252.5084381103516	-1213.02587890625	1031.564819335938	-208.9440155029297	-1247.126953125	1014.12744140625	-263.2359619140625	-1099.732788085938	835.5149536132812	-197.9084014892578	-1186.25927734375	808.2798461914062	-186.8754119873047	-1208.491455078125	977.102783203125	-200.3687286376953	-1089.537231445312	675.9935913085938	-192.8415832519531	-1091.44189453125	742.9232788085938	-168.2523651123047	-1161.128295898438	736.0127563476562	-177.1499938964844	-1175.266967773438	1524.748291015625	-374.7120361328125	-1002.850891113281	1597.628784179688	-447.1357727050781	-1061.496704101562	1591.621215820312	-333.8113098144531	-1115.364135742188	1527.221923828125	-521.8589477539062	-998.1845092773438	894.9127197265625	-582.234375	-1054.546142578125	915.2709350585938	-260.8895874023438	-947.8917846679688	927.1808471679688	-478.5435180664062	-1022.768676757812	471.4290771484375	-539.4998168945312	-994.0533447265625	628.4581909179688	-556.2206420898438	-1129.42529296875	50.61053848266602	-563.5542602539062	-1056.236450195312	322.052978515625	-553.1080932617188	-974.5240478515625	39.15660095214844	-426.8448486328125	-1058.71142578125	44.15607070922852	-429.1724548339844	-1025.658081054688	45.29916763305664	-525.39111328125	-1198.056640625	47.53654479980469	-526.4426879882812	-1161.26806640625	483.30078125	-277.3285522460938	-1157.370361328125	742.530517578125	-233.6646270751953	-1217.5126953125	50.96862030029297	-335.1896362304688	-1155.72314453125	338.5751953125	-295.5479736328125	-1014.205871582031	43.07912063598633	-303.357421875	-1063.945678710938	47.92610168457031	-361.9883422851562	-1117.08837890625	47.21834182739258	-280.698974609375	-1248.660522460938	40.85258483886719	-398.2060241699219	-997.1131591796875	806.2942504882812	-650.184326171875	-1177.224609375	873.6613159179688	-251.7814483642578	
61	0.6	-1210.587646484375	973.2293090820312	-406.0465087890625	-1151.613037109375	970.6087646484375	-515.3348388671875	-1191.416625976562	1033.45654296875	-469.6242370605469	-989.0015258789062	1204.48583984375	-384.5989379882812	-1208.546997070312	1139.3193359375	-474.7118225097656	-1170.907958984375	1370.745483398438	-457.7241821289062	-1025.040405273438	1298.621826171875	-400.7659606933594	-1244.537109375	1248.472534179688	-394.1292114257812	-1161.071533203125	1315.671142578125	-546.5656127929688	-1047.208129882812	1363.423828125	-581.3457641601562	-1036.81103515625	1237.01123046875	-641.8211669921875	-1016.926452636719	1026.761352539062	-661.0230712890625	-1108.523071289062	1017.805969238281	-622.3937377929688	-940.0048217773438	845.634765625	-585.6317138671875	-997.2435302734375	944.0374145507812	-652.8663940429688	-924.0680541992188	697.0824584960938	-576.973388671875	-973.088623046875	753.3151245117188	-635.654052734375	-921.74755859375	767.753173828125	-598.47119140625	-1175.175903320312	1367.860107421875	-300.173583984375	-1212.030029296875	1300.336303710938	-252.5519866943359	-1212.723876953125	1031.58544921875	-209.0028381347656	-1246.784545898438	1014.136169433594	-263.3824157714844	-1099.393188476562	835.5081787109375	-198.0226745605469	-1185.955078125	808.296630859375	-186.9020385742188	-1208.202026367188	977.1400756835938	-200.4259033203125	-1089.306274414062	676.0035400390625	-192.7850952148438	-1091.177001953125	742.9462890625	-168.2515258789062	-1160.8896484375	736.0510864257812	-177.0791320800781	-1174.888671875	1524.720336914062	-374.7427673339844	-1002.345153808594	1597.642456054688	-447.0414428710938	-1061.064575195312	1591.532104492188	-333.7804565429688	-1114.788208007812	1527.178588867188	-521.87451171875	-997.9078369140625	894.8743286132812	-582.3758544921875	-1054.336669921875	915.246826171875	-260.9448547363281	-947.5933837890625	927.0986328125	-478.6141052246094	-1022.549926757812	471.4077453613281	-539.3884887695312	-993.8844604492188	628.461669921875	-556.2132568359375	-1129.436157226562	50.65138244628906	-563.5458984375	-1056.052001953125	321.9911193847656	-553.0155639648438	-974.52294921875	39.16128158569336	-426.8434448242188	-1058.7119140625	44.14179229736328	-429.152099609375	-1025.661499023438	45.32425689697266	-525.3504638671875	-1198.0634765625	47.52782440185547	-526.4439086914062	-1161.165161132812	483.2920837402344	-277.351318359375	-1157.14111328125	742.54736328125	-233.6897277832031	-1217.510498046875	50.96976089477539	-335.1931762695312	-1155.645141601562	338.5487670898438	-295.5701599121094	-1014.2060546875	43.07827758789062	-303.3573608398438	-1063.945068359375	47.91664505004883	-361.9879150390625	-1117.085083007812	47.21872329711914	-280.7008361816406	-1248.668334960938	40.84399795532227	-398.2123413085938	-996.9473876953125	806.2935180664062	-650.3059692382812	-1177.615478515625	874.133056640625	-252.2166900634766	
